<svg width="158" height="119" viewBox="0 0 158 119" fill="none" xmlns="http://www.w3.org/2000/svg">
<path d="M39.0174 57.1864L34.8672 69.8031C33.93 72.6522 34.1968 75.7605 35.6059 78.4082L54.5478 114L58.9401 93.3107L42.3217 55.746L39.0174 57.1864Z" fill="white"/>
<path d="M54.5478 114C58.9401 122 64.4609 105.79 64.4609 105.79L58.9401 93.3107L54.5478 114Z" fill="white"/>
<path d="M72.3158 42.6717C75.1508 41.4359 77.4998 39.3008 79 36.5964V36.5964V32.9733L78.2723 32.9997C74.4194 33.1395 70.5974 32.2642 67.1892 30.4617L15.887 3.3284L22.346 16.1361L42.3217 55.746L72.3158 42.6717Z" fill="white"/>
<path d="M15.887 3.3284L3 6.61243L22.346 16.1361L15.887 3.3284Z" fill="white"/>
<path d="M93.5391 105.766C93.5391 105.766 99.0599 121.5 103.452 114L99.0599 93.2493L93.5391 105.766Z" fill="white"/>
<path d="M134.409 50.4635C137.43 49.1802 139.793 46.7159 140.949 43.6443L155 6.29377L135.654 15.8457L115.678 55.5732L118.983 57.0178L134.409 50.4635Z" fill="white"/>
<path d="M155 6.29377L142.113 3L135.654 15.8457L155 6.29377Z" fill="white"/>
<path d="M79 36.5964V36.5964C77.4998 39.3008 75.1508 41.4359 72.3158 42.6717L42.3217 55.746M79 36.5964V32.9733M79 36.5964V36.5964C80.5032 39.1652 82.7821 41.1912 85.5091 42.3835L115.678 55.5732M79 32.9733L78.2723 32.9997C74.4194 33.1395 70.5974 32.2642 67.1892 30.4617L15.887 3.3284M79 32.9733H80.1349C83.7293 32.9733 87.269 32.0926 90.4443 30.4082L142.113 3M15.887 3.3284L3 6.61243M15.887 3.3284L22.346 16.1361M3 6.61243L17.0465 43.8394C18.2052 46.9102 20.5711 49.3724 23.5932 50.6526L39.0174 57.1864M3 6.61243L22.346 16.1361M39.0174 57.1864L34.8672 69.8031C33.93 72.6522 34.1968 75.7605 35.6059 78.4082L54.5478 114M39.0174 57.1864L42.3217 55.746M54.5478 114C58.9401 122 64.4609 105.79 64.4609 105.79M54.5478 114L58.9401 93.3107M64.4609 105.79L70.3985 80.8237C70.7676 79.2716 73.0522 79.5395 73.0522 81.1349V81.1349C73.0522 81.1515 73.0528 81.1654 73.0552 81.1818C73.0616 81.2256 73.0795 81.333 73.1196 81.4926C74.4797 86.9053 83.8218 87.0577 84.8846 81.5789C84.9478 81.2528 84.9478 81.0623 84.9478 81.0623C84.9478 81.0623 84.9478 81.0623 84.9478 81.0623V81.0623C84.9478 79.4628 87.2386 79.1949 87.6077 80.7513L93.5391 105.766M64.4609 105.79L58.9401 93.3107M42.3217 55.746L58.9401 93.3107M42.3217 55.746L22.346 16.1361M142.113 3L155 6.29377M142.113 3L135.654 15.8457M155 6.29377L140.949 43.6443C139.793 46.7159 137.43 49.1802 134.409 50.4635L118.983 57.0178M155 6.29377L135.654 15.8457M118.983 57.0178L123.141 69.6969C124.073 72.5392 123.808 75.6386 122.406 78.2809L103.452 114M118.983 57.0178L115.678 55.5732M103.452 114C99.0599 121.5 93.5391 105.766 93.5391 105.766M103.452 114L99.0599 93.2493M93.5391 105.766L99.0599 93.2493M115.678 55.5732L99.0599 93.2493M115.678 55.5732L135.654 15.8457" stroke="white" stroke-width="5" stroke-linejoin="round"/>
</svg>
