<svg width="154" height="115" viewBox="0 0 154 115" fill="none" xmlns="http://www.w3.org/2000/svg">
<path d="M37.0174 55.1864L32.8672 67.8031C31.93 70.6522 32.1968 73.7605 33.6059 76.4082L52.5478 112L56.9401 91.3107L40.3217 53.746L37.0174 55.1864Z" fill="white"/>
<path d="M70.3158 40.6717C73.1508 39.4359 75.4998 37.3008 77 34.5964V34.5964V30.9733L76.2723 30.9997C72.4194 31.1395 68.5974 30.2642 65.1892 28.4617L13.887 1.3284L20.346 14.1361L40.3217 53.746L70.3158 40.6717Z" fill="white"/>
<path d="M91.5391 103.766C91.5391 103.766 97.0599 119.5 101.452 112L97.0599 91.2493L91.5391 103.766Z" fill="white"/>
<path d="M153 4.29377L140.113 1L133.654 13.8457L153 4.29377Z" fill="white"/>
<path d="M77 30.9733V34.5964V34.5964C78.5032 37.1652 80.7821 39.1912 83.5091 40.3835L113.678 53.5732L133.654 13.8457L140.113 1L88.4443 28.4082C85.269 30.0926 81.7293 30.9733 78.1349 30.9733H77Z" fill="white"/>
<path d="M13.887 1.3284L1 4.61243L20.346 14.1361L13.887 1.3284Z" fill="white"/>
<path d="M77 34.5964V34.5964C75.4998 37.3008 73.1508 39.4359 70.3158 40.6717L40.3217 53.746M77 34.5964V30.9733M77 34.5964V34.5964C78.5032 37.1652 80.7821 39.1912 83.5091 40.3835L113.678 53.5732M77 30.9733L76.2723 30.9997C72.4194 31.1395 68.5974 30.2642 65.1892 28.4617L13.887 1.3284M77 30.9733H78.1349C81.7293 30.9733 85.269 30.0926 88.4443 28.4082L140.113 1M13.887 1.3284L1 4.61243M13.887 1.3284L20.346 14.1361M1 4.61243L15.0465 41.8394C16.2052 44.9102 18.5711 47.3724 21.5932 48.6526L37.0174 55.1864M1 4.61243L20.346 14.1361M37.0174 55.1864L32.8672 67.8031C31.93 70.6522 32.1968 73.7605 33.6059 76.4082L52.5478 112M37.0174 55.1864L40.3217 53.746M52.5478 112C56.9401 120 62.4609 103.79 62.4609 103.79M52.5478 112L56.9401 91.3107M62.4609 103.79L68.3985 78.8237C68.7676 77.2716 71.0522 77.5395 71.0522 79.1349V79.1349C71.0522 79.1515 71.0528 79.1654 71.0552 79.1818C71.0616 79.2256 71.0795 79.333 71.1196 79.4926C72.4797 84.9053 81.8218 85.0577 82.8846 79.5789C82.9478 79.2528 82.9478 79.0623 82.9478 79.0623C82.9478 79.0623 82.9478 79.0623 82.9478 79.0623V79.0623C82.9478 77.4628 85.2386 77.1949 85.6077 78.7513L91.5391 103.766M62.4609 103.79L56.9401 91.3107M40.3217 53.746L56.9401 91.3107M40.3217 53.746L20.346 14.1361M140.113 1L153 4.29377M140.113 1L133.654 13.8457M153 4.29377L138.949 41.6443C137.793 44.7159 135.43 47.1802 132.409 48.4635L116.983 55.0178M153 4.29377L133.654 13.8457M116.983 55.0178L121.141 67.6969C122.073 70.5392 121.808 73.6386 120.406 76.2809L101.452 112M116.983 55.0178L113.678 53.5732M101.452 112C97.0599 119.5 91.5391 103.766 91.5391 103.766M101.452 112L97.0599 91.2493M91.5391 103.766L97.0599 91.2493M113.678 53.5732L97.0599 91.2493M113.678 53.5732L133.654 13.8457" stroke="white" stroke-linejoin="round"/>
</svg>
