<svg width="152" height="114" viewBox="0 0 152 114" fill="none" xmlns="http://www.w3.org/2000/svg">
<path d="M36.0174 54.1864L31.8672 66.8031C30.93 69.6522 31.1968 72.7605 32.6059 75.4082L51.5478 111L55.9401 90.3107L39.3217 52.746L36.0174 54.1864Z" fill="#D9D9D9"/>
<path d="M51.5478 111C55.9401 119 61.4609 102.79 61.4609 102.79L55.9401 90.3107L51.5478 111Z" fill="#D9D9D9"/>
<path d="M69.3158 39.6717C72.1508 38.4359 74.4998 36.3008 76 33.5964V33.5964V29.9733L75.2723 29.9997C71.4194 30.1395 67.5974 29.2642 64.1892 27.4617L12.887 0.328402L19.346 13.1361L39.3217 52.746L69.3158 39.6717Z" fill="#D9D9D9"/>
<path d="M12.887 0.328402L0 3.61243L19.346 13.1361L12.887 0.328402Z" fill="#D9D9D9"/>
<path d="M90.5391 102.766C90.5391 102.766 96.0599 118.5 100.452 111L96.0599 90.2493L90.5391 102.766Z" fill="#D9D9D9"/>
<path d="M131.409 47.4635C134.43 46.1802 136.793 43.7159 137.949 40.6443L152 3.29377L132.654 12.8457L112.678 52.5732L115.983 54.0178L131.409 47.4635Z" fill="#D9D9D9"/>
<path d="M152 3.29377L139.113 0L132.654 12.8457L152 3.29377Z" fill="#D9D9D9"/>
<path d="M67.3985 77.8237C67.7676 76.2716 70.0522 76.5395 70.0522 78.1349V78.1349C70.0522 78.1515 70.0528 78.1654 70.0552 78.1818C70.0616 78.2256 70.0795 78.333 70.1196 78.4926C71.4797 83.9053 80.8218 84.0577 81.8846 78.5789C81.9478 78.2528 81.9478 78.0623 81.9478 78.0623C81.9478 78.0623 81.9478 78.0623 81.9478 78.0623V78.0623C81.9478 76.4628 84.2386 76.1949 84.6077 77.7513L90.5391 102.766L96.0599 90.2493L112.678 52.5732L82.5091 39.3835C79.7821 38.1912 77.5032 36.1652 76 33.5964V33.5964V33.5964C74.4998 36.3008 72.1508 38.4359 69.3158 39.6717L39.3217 52.746L55.9401 90.3107L61.4609 102.79L67.3985 77.8237Z" fill="#D9D9D9"/>
<path d="M76 29.9733V33.5964V33.5964C77.5032 36.1652 79.7821 38.1912 82.5091 39.3835L112.678 52.5732L132.654 12.8457L139.113 0L87.4443 27.4082C84.269 29.0926 80.7293 29.9733 77.1349 29.9733H76Z" fill="#D9D9D9"/>
<path d="M0 3.61243L14.0465 40.8394C15.2052 43.9102 17.5711 46.3724 20.5932 47.6526L36.0174 54.1864L39.3217 52.746L19.346 13.1361L0 3.61243Z" fill="#D9D9D9"/>
<path d="M119.406 75.2809C120.808 72.6386 121.073 69.5392 120.141 66.6969L115.983 54.0178L112.678 52.5732L96.0599 90.2493L100.452 111L119.406 75.2809Z" fill="#D9D9D9"/>
</svg>
